<svg height="200" viewBox="0 0 650 200" width="650" xmlns="http://www.w3.org/2000/svg" xmlns:xlink="http://www.w3.org/1999/xlink">
<defs>
<filter id="f1" x="0" y="0" width="300%" height="300%">
<feOffset result="offOut" in="SourceGraphic" dx="0" dy="0"></feOffset>
<feGaussianBlur result="blurOut" in="offOut" stdDeviation="5"></feGaussianBlur>
<feBlend in="SourceGraphic" in2="blurOut" mode="normal"></feBlend>
</filter>
<filter width="160%" height="160%" id="f2" color-interpolation-filters="sRGB" x="-.013" y="-.182">
<feGaussianBlur stdDeviation="3"></feGaussianBlur>
</filter>
<linearGradient id="metalColor" x1="0%" y1="0%" x2="0%" y2="100%">
<stop offset="0%" style="stop-color:rgb(200,200,200);stop-opacity:1"></stop>
<stop offset="20%" style="stop-color:rgb(250,250,250);stop-opacity:1"></stop>
<stop offset="80%" style="stop-color:rgb(60,60,60);stop-opacity:1"></stop>
<stop offset="100%" style="stop-color:#fff7dd;stop-opacity:1"></stop>
</linearGradient>
<linearGradient id="fireColor" x1="0%" y1="0%" x2="0%" y2="100%">
<stop offset="0%" style="stop-color:#1948cc16" />
<stop offset="70%" style="stop-color:#31c6ff66" />
<stop offset="100%" style="stop-color:#ffffffff" />
</linearGradient>
<clipPath id="a">
<path d="m48.47 2.16-4.4 21.62v.06h3.35l.68-4.11h4.25l.68 4.11h3.37l-4.36-21.68zm-44.88.03c-1.36 0-2.05.66-2.05 1.99v4.81c0 .7.25 1.28.74 1.73l6.81 6.15v4.25h-4.15v-4.42h-3.39v5.16c0 1.32.68 1.98 2.05 1.98h6.84c1.37 0 2.06-.66 2.06-1.98v-5.16c0-.73-.25-1.31-.74-1.76l-6.82-6.11v-3.91h4.15v4.08h3.4v-4.84c0-1.31-.69-1.96-2.06-1.96zm10.47 0v21.65h3.4v-21.65zm7.1 0c-1.37 0-2.06.66-2.06 1.99v17.68c0 1.32.67 1.98 2.02 1.98h7.14c1.38 0 2.07-.66 2.07-1.98v-9.61h-5.94v2.75h2.53v6.06h-4.42v-16.09h4.43v3.83h3.41v-4.62c0-1.33-.69-1.99-2.07-1.99zm10.69 0v21.65h3.31v-12.06c0-.38-.07-.9-.22-1.56l5.44 13.62h2.97v-21.65h-3.29v11.78c0 .38.07.9.22 1.56l-5.45-13.34zm24.28 0v2.86h3.74v18.79h3.38v-18.79h3.74v-2.86zm11.43 0v19.67c0 1.32.69 1.98 2.06 1.98h7.21c1.39 0 2.09-.66 2.09-1.98v-19.67h-3.38v18.86h-4.58v-18.86zm12.93 0v21.65h3.4v-18.87h4.28v6.86h-3.34v1.95l3.74 10.05h3.54l-3.75-9.81c1.12 0 1.86-.07 2.21-.21.65-.27.97-.86.97-1.77v-7.86c0-1.33-.68-1.99-2.05-1.99zm12.52 0v21.65h9.42v-2.86h-6.02v-6.79h5.11v-2.81h-5.1v-6.33h5.94v-2.86zm12.54 0c-1.36 0-2.05.66-2.05 1.99v4.81c0 .7.25 1.28.74 1.73l6.81 6.14v4.25h-4.15v-4.41h-3.4v5.16c0 1.32.68 1.98 2.05 1.98h6.84c1.37 0 2.06-.66 2.06-1.98v-5.16c0-.73-.25-1.31-.74-1.76l-6.8-6.11v-3.91h4.15v4.08h3.4v-4.84c0-1.31-.69-1.96-2.06-1.96zm-55.33 4.99 1.66 9.76h-3.32zm6.81 23.28-3.35 17.01v.04h2.56l.52-3.23h3.24l.52 3.23h2.57l-3.33-17.05zm17.93 0-3.35 17.01v.04h2.56l.52-3.23h3.24l.52 3.23h2.57l-3.33-17.05zm16.69 0-3.35 17.01v.04h2.56l.52-3.23h3.24l.52 3.23h2.57l-3.33-17.05zm-91.17.02v17.03h6.81v-2.27h-4.22v-14.76zm8.71 0c-1.03 0-1.54.52-1.54 1.57v13.91c0 1.04.51 1.56 1.54 1.56h5.62c1.05 0 1.57-.52 1.57-1.56v-13.91c0-1.04-.52-1.57-1.57-1.57zm9.64 0c-1.05 0-1.57.52-1.57 1.57v13.91c0 1.04.51 1.56 1.54 1.56h5.45c1.06 0 1.58-.52 1.58-1.56v-7.56h-4.53v2.16h1.93v4.77h-3.38v-12.66h3.38v3.02h2.6v-3.63c0-1.04-.53-1.57-1.58-1.57zm9.4 0c-1.03 0-1.54.52-1.54 1.57v13.91c0 1.04.51 1.56 1.54 1.56h5.62c1.05 0 1.57-.52 1.57-1.56v-13.91c0-1.04-.52-1.57-1.57-1.57zm9.58 0c-1.04 0-1.56.52-1.56 1.57v3.79c0 .55.19 1 .56 1.36l5.19 4.83v3.34h-3.17v-3.47h-2.59v4.06c0 1.04.52 1.56 1.56 1.56h5.21c1.05 0 1.57-.52 1.57-1.56v-4.06c0-.57-.19-1.03-.56-1.38l-5.18-4.81v-3.08h3.17v3.21h2.59v-3.81c0-1.03-.52-1.55-1.57-1.55zm13.88 0-6.84 16.88v.15h2.36l6.84-16.87v-.16zm11.07 0 3.31 17.05h2.58l3.32-17.05h-2.59l-1.95 11.68c-.05.64-.07 1.13-.07 1.46-.03-.64-.05-1.13-.07-1.46l-1.94-11.68zm17.75 0v2.25h2.86v14.78h2.58v-14.78h2.86v-2.25zm17.45 0v17.03h2.59v-14.84h3.27v5.4h-2.55v1.53l2.86 7.91h2.7l-2.86-7.71c.86 0 1.42-.06 1.68-.16.49-.21.74-.67.74-1.39v-6.2c0-1.04-.52-1.57-1.56-1.57zm10.77 0c-1.04 0-1.56.52-1.56 1.57v3.79c0 .55.19 1 .56 1.36l5.19 4.83v3.34h-3.16v-3.47h-2.59v4.06c0 1.04.52 1.56 1.56 1.56h5.21c1.05 0 1.57-.52 1.57-1.56v-4.06c0-.57-.19-1.03-.57-1.38l-5.19-4.81v-3.08h3.16v3.21h2.59v-3.81c0-1.03-.52-1.55-1.57-1.55zm-98.49 2.19h3.55v12.66h-3.55zm19.04 0h3.55v12.66h-3.55zm29.1 1.74 1.26 7.68h-2.54zm17.93 0 1.26 7.68h-2.54zm16.69 0 1.26 7.68h-2.54zm-69.65 17.59-5.29 21.62v.05h4.03l.82-4.11h5.11l.82 4.11h4.05l-5.25-21.67zm-21.04.03v21.64h10.9c1.66 0 2.49-.66 2.49-1.98v-6.43c0-.76-.31-1.35-.94-1.78-.08-.06-.81-.43-2.2-1.11 1.34-.65 2.05-1.01 2.13-1.06.58-.41.87-.98.87-1.71v-5.57c0-1.33-.81-1.99-2.43-1.99zm33 0v21.64h3.98v-12.06c0-.38-.09-.9-.26-1.56l6.54 13.62h3.58v-21.64h-3.98v11.78c0 .38.09.9.26 1.56l-6.55-13.34zm17.23 0v21.64h3.98v-12.06c0-.38-.09-.9-.26-1.56l6.54 13.62h3.58v-21.64h-3.98v11.78c0 .38.09.9.26 1.56l-6.54-13.34zm17.23 0v21.64h11.32v-2.86h-7.24v-6.79h6.14v-2.81h-6.14v-6.32h7.13v-2.86zm14.23 0v21.64h4.08v-18.86h5.15v6.86h-4.01v1.95l4.5 10.05h4.26l-4.5-9.8c1.35 0 2.23-.07 2.65-.21.78-.27 1.17-.86 1.17-1.77v-7.87c0-1.33-.82-1.99-2.46-1.99zm18.99 0c-1.64 0-2.46.66-2.46 1.99v4.81c0 .7.3 1.28.89 1.73l8.18 6.14v4.24h-4.99v-4.41h-4.08v5.16c0 1.32.82 1.98 2.46 1.98h8.22c1.65 0 2.48-.66 2.48-1.98v-5.16c0-.73-.3-1.32-.89-1.76l-8.18-6.11v-3.91h4.99v4.08h4.08v-4.84c0-1.31-.83-1.96-2.48-1.96zm-96.6 2.72h5.11v5.24l-1.97 1.11h-3.14zm19.06 2.27 1.99 9.76h-3.99zm-19.06 6.71h3.21l2.01 1.05v6.17h-5.22zm-.14 16.44-4.83 21.62v.06h3.68l.75-4.11h4.67l.75 4.11h3.7l-4.8-21.69zm10.93.03v21.64h3.63v-12.06c0-.38-.08-.9-.24-1.56l5.98 13.62h3.27v-21.65h-3.63v11.78c0 .38.08.9.24 1.56l-5.98-13.34zm15.74 0v21.64h7.6c1.48 0 2.65-.36 3.52-1.08.87-.73 1.31-1.73 1.31-3v-13.46c0-1.27-.44-2.27-1.31-3-.87-.74-2.05-1.11-3.52-1.11zm22.3 0v21.64h3.59v-10.68c0-.54-.07-1.33-.22-2.35l3.23 11.05h1.9l3.22-11.05c-.15 1-.22 1.79-.22 2.35v10.68h3.59v-21.65h-3.52l-3.92 11.96c-.06.42-.1.75-.1.98-.02-.53-.05-.85-.1-.98l-3.92-11.96zm20.38 0c-1.48 0-2.21.66-2.21 1.99v17.67c0 1.32.74 1.98 2.21 1.98h8.1c1.51 0 2.26-.66 2.26-1.98v-17.68c0-1.33-.75-1.99-2.26-1.99zm13.46 0v21.64h3.73v-18.87h4.7v6.86h-3.67v1.95l4.11 10.05h3.89l-4.11-9.8c1.23 0 2.04-.07 2.42-.21.71-.27 1.07-.86 1.07-1.77v-7.87c0-1.33-.75-1.99-2.25-1.99zm15.17 0v21.64h10.34v-2.86h-6.61v-6.79h5.61v-2.81h-5.61v-6.32h6.52v-2.86zm-67.58 2.78h2.77c1.46 0 2.18.6 2.18 1.81v12.43c0 1.23-.76 1.84-2.28 1.84h-2.68zm40.46 0h5.12v16.07h-5.11zm-68.93 2.21 1.82 9.76h-3.65zm33.45 23.47-3.29 16.64v.04h2.5l.51-3.16h3.17l.51 3.16h2.51l-3.25-16.68zm-40.63.02v2.21h2.79v14.46h2.52v-14.46h2.79v-2.21zm9.17 0v16.66h2.53v-7.47h3.43v7.47h2.55v-16.66h-2.55v6.87h-3.43v-6.87zm10.29 0v16.66h2.54v-14.52h3.19v5.28h-2.49v1.5l2.79 7.74h2.64l-2.79-7.55c.84 0 1.39-.05 1.65-.16.48-.21.72-.66.72-1.36v-6.06c0-1.02-.51-1.53-1.53-1.53zm9.99 0v16.66h7.03v-2.2h-4.49v-5.23h3.81v-2.16h-3.81v-4.87h4.43v-2.21zm18.28 0v16.66h5.17c1 0 1.8-.28 2.39-.83.59-.56.89-1.33.89-2.31v-10.36c0-.98-.3-1.75-.89-2.31-.59-.57-1.39-.85-2.39-.85zm14.51 0v16.66h5.17c1 0 1.8-.28 2.39-.83.59-.56.89-1.33.89-2.31v-10.36c0-.98-.3-1.75-.89-2.31-.59-.57-1.39-.85-2.39-.85zm10.16 0v16.66h7.03v-2.2h-4.49v-5.23h3.81v-2.16h-3.81v-4.87h4.43v-2.21zm10 0c-1.02 0-1.53.51-1.53 1.53v3.71c0 .54.18.98.55 1.33l5.08 4.73v3.27h-3.1v-3.4h-2.53v3.97c0 1.01.51 1.52 1.53 1.52h5.1c1.03 0 1.54-.51 1.54-1.52v-3.97c0-.56-.18-1.01-.55-1.35l-5.08-4.71v-3.01h3.1v3.14h2.53v-3.73c0-1.01-.51-1.51-1.54-1.51zm8.46 0v16.66h2.54v-16.66zm5.94 0c-1.03 0-1.54.51-1.54 1.53v13.61c0 1.01.5 1.52 1.51 1.52h5.33c1.03 0 1.55-.51 1.55-1.52v-7.4h-4.43v2.12h1.88v4.66h-3.3v-12.38h3.3v2.95h2.54v-3.56c0-1.02-.51-1.53-1.55-1.53zm8.62 0v16.66h2.47v-9.28c0-.29-.06-.69-.16-1.2l4.06 10.48h2.21v-16.66h-2.47v9.07c0 .29.05.69.16 1.2l-4.06-10.27zm-55.15 2.14h1.88c.99 0 1.48.46 1.48 1.39v9.57c0 .94-.52 1.42-1.55 1.42h-1.82zm14.51 0h1.88c.99 0 1.48.46 1.48 1.39v9.57c0 .94-.52 1.42-1.55 1.42h-1.82zm-22.84 1.7 1.23 7.52h-2.48zm5.54 19.64-4.4 21.62v.06h3.35l.68-4.11h4.25l.68 4.11h3.37l-4.37-21.67zm-44.88.03c-1.36 0-2.05.66-2.05 1.99v4.81c0 .7.25 1.28.74 1.73l6.81 6.14v4.25h-4.16v-4.41h-3.39v5.16c0 1.32.68 1.98 2.05 1.98h6.84c1.37 0 2.06-.66 2.06-1.98v-5.16c0-.73-.25-1.31-.74-1.76l-6.81-6.11v-3.91h4.14v4.08h3.4v-4.84c0-1.31-.69-1.96-2.06-1.96zm10.47 0v21.64h3.4v-21.64zm7.1 0c-1.37 0-2.06.66-2.06 1.99v17.67c0 1.32.67 1.98 2.02 1.98h7.14c1.38 0 2.07-.66 2.07-1.98v-9.61h-5.94v2.75h2.53v6.06h-4.43v-16.08h4.43v3.83h3.41v-4.62c0-1.33-.69-1.99-2.07-1.99zm10.69 0v21.64h3.31v-12.06c0-.38-.07-.9-.22-1.56l5.44 13.62h2.97v-21.64h-3.31v11.78c0 .38.07.9.22 1.56l-5.44-13.34zm24.28 0v2.86h3.74v18.78h3.38v-18.78h3.74v-2.86zm11.43 0v19.66c0 1.32.69 1.98 2.06 1.98h7.21c1.39 0 2.09-.66 2.09-1.98v-19.66h-3.4v18.86h-4.57v-18.86zm12.93 0v21.64h3.4v-18.86h4.28v6.86h-3.34v1.95l3.74 10.05h3.54l-3.75-9.81c1.12 0 1.86-.07 2.21-.21.65-.27.97-.86.97-1.77v-7.87c0-1.33-.68-1.99-2.05-1.99zm12.52 0v21.64h9.42v-2.86h-6.02v-6.79h5.11v-2.8h-5.11v-6.32h5.94v-2.86zm12.54 0c-1.36 0-2.05.66-2.05 1.99v4.81c0 .7.25 1.28.74 1.73l6.81 6.14v4.25h-4.15v-4.41h-3.4v5.16c0 1.32.68 1.98 2.05 1.98h6.84c1.37 0 2.06-.66 2.06-1.98v-5.16c0-.73-.25-1.31-.74-1.76l-6.81-6.11v-3.91h4.15v4.08h3.4v-4.84c0-1.31-.69-1.96-2.06-1.96zm-55.33 4.99 1.66 9.76h-3.32z" transform="translate(0 -26)">
<animateTransform attributeName="transform" attributeType="XML" type="translate" values="0 -130;
                                  0 -130;
                                  0 -104;
                                  0 -104;
                                  0 -78;
                                  0 -78;
                                  0 -52;
                                  0 -52;
                                  0 -26;
                                  0 -26;
                                  0 0" dur="7.5s" repeatCount="indefinite"></animateTransform>
</path>
</clipPath>
</defs>
<rect fill="#0f0f0f" width="650" height="200"></rect>
<path fill="url(#fireColor)" filter="url(#f2)" d="m -90.80889,172.87857 c -7.13116,-0.007 -14.32295,1.28268 -21.66962,4.78221 V 204 h 434.01839 434.01839 v -26.33922 c -39.92415,19.10525 -72.33638,-17.22845 -108.5046,0 -39.92415,19.10525 -72.33637,-17.22845 -108.50459,0 -39.92413,19.10525 -72.33641,-17.22845 -108.5046,0 -39.92413,19.10525 -72.3364,-17.22845 -108.5046,0 -39.92412,19.10525 -72.3364,-17.22845 -108.5046,0 -39.92413,19.10525 -72.3364,-17.22845 -108.5046,0 -39.92412,19.10525 -72.3364001,-17.22845 -108.50459,0 -31.814539,15.2245 -58.858882,-4.75527 -86.83498,-4.78221 z" transform="translate(-14.5893 3.22712)">
<animateTransform attributeName="transform" attributeType="XML" type="translate" values="0 0;
                                  -54.25 12" dur="6s" repeatCount="indefinite" calcMode="lineal"></animateTransform>
</path>
<path fill="url(#fireColor)" filter="url(#f2)" d="m -90.80889,172.87857 c -7.13116,-0.007 -14.32295,1.28268 -21.66962,4.78221 V 204 h 434.01839 434.01839 v -26.33922 c -39.92415,19.10525 -72.33638,-17.22845 -108.5046,0 -39.92415,19.10525 -72.33637,-17.22845 -108.50459,0 -39.92413,19.10525 -72.33641,-17.22845 -108.5046,0 -39.92413,19.10525 -72.3364,-17.22845 -108.5046,0 -39.92412,19.10525 -72.3364,-17.22845 -108.5046,0 -39.92413,19.10525 -72.3364,-17.22845 -108.5046,0 -39.92412,19.10525 -72.3364001,-17.22845 -108.50459,0 -31.814539,15.2245 -58.858882,-4.75527 -86.83498,-4.78221 z" transform="translate(-39.6607 8.77288)">
<animateTransform attributeName="transform" attributeType="XML" type="translate" values="-54.25 12; 0 0" dur="6s" repeatCount="indefinite" calcMode="lineal"></animateTransform>
</path>
<path fill="#272727" d="M 327.54102 33.324219 L 266.33594 98.28125 L 326.08203 163.89844 L 376.78711 110.34766 L 325.77344 142.41992 L 286.37891 99.236328 L 327.03711 55.294922 L 378.55469 91.408203 L 327.54102 33.324219 z M 378.55469 91.408203 L 327.67773 60.107422 L 300.53516 89.572266 L 329.28516 71.357422 L 370.53516 99.214844 L 329.64258 127.42773 L 300 109.21484 L 334.82227 135.10742 L 375.9043 106.18945 L 378.55469 91.408203 z "></path>
<path fill="#fff" d="m 139.35473,116.93164 188.92871,1.5 188.92871,-1.5 -188.92871,-1.5 z"></path>
<path fill="#ccc" d="m280.42 131.95c-.2 0-.37.09-.52.28-.14.18-.21.4-.21.65v9.4c0 .25.07.47.21.65.15.18.32.27.52.27.21 0 .38-.09.52-.27.15-.18.22-.4.22-.65v-3.76h1.28l1.67 4.23c.13.35.35.52.66.52.11 0 .22-.03.33-.09.18-.12.31-.3.37-.54.07-.24.06-.48-.03-.7l-1.43-3.63c.54-.24.98-.63 1.31-1.19.34-.56.52-1.19.52-1.88 0-.91-.27-1.68-.82-2.33-.55-.64-1.21-.96-1.98-.96zm14.53 0c-.21 0-.38.09-.52.28-.15.18-.22.4-.22.66v9.46c0 .26.07.48.22.65.14.18.32.28.52.28h4.55c.21 0 .38-.09.52-.28.15-.18.22-.4.22-.65 0-.26-.07-.48-.22-.66-.14-.18-.32-.28-.52-.28h-3.8v-2.86h2.74c.21 0 .38-.09.53-.27s.22-.41.22-.66c0-.26-.07-.48-.22-.66s-.32-.27-.53-.27h-2.74v-2.86l3.8.02h.01c.21 0 .38-.09.52-.28.15-.18.22-.4.22-.65 0-.26-.07-.48-.21-.66-.15-.18-.32-.28-.53-.28l-4.55-.02zm28.46 0c-.21 0-.38.09-.53.28-.14.18-.21.4-.21.65 0 .26.07.48.21.65.15.18.32.28.53.28h1.87v8.53c0 .26.07.48.22.66.14.18.32.27.52.27.21 0 .38-.09.52-.27.15-.18.22-.4.22-.66v-8.53h1.87c.2 0 .38-.09.52-.28.14-.18.21-.4.21-.65 0-.26-.07-.48-.21-.65-.15-.18-.32-.28-.52-.28zm28.21 0c-1.25 0-2.31.55-3.19 1.66s-1.33 2.44-1.33 4 .44 2.89 1.33 4c.88 1.11 1.94 1.66 3.19 1.66s2.31-.55 3.2-1.66c.88-1.1 1.32-2.44 1.32-4s-.44-2.89-1.32-4c-.88-1.1-1.95-1.66-3.2-1.66zm13.71.01c-.08 0-.15.02-.22.06-.15.06-.27.17-.36.34-.09.16-.14.34-.14.54v9.45c0 .26.07.48.22.65.14.18.32.28.52.28.21 0 .38-.09.52-.28.15-.18.22-.4.22-.65v-6.72l4.52 7.29v.01h.01c.01.02.03.04.04.06v.01l.01.01c.02.02.04.04.06.06 0 .01.01.01.03.02.02.02.03.03.04.04 0 .01.01.01.02.02s.03.01.04.02.02.02.03.02c.01.01.03.02.05.02.01.01.02.02.03.02.01.01.03.01.05.02s.03.01.03.01c.02.01.04.01.06.02s.02.01.01 0c.03.01.06.01.08.01.03 0 .07 0 .11-.01l.02-.01c.04-.01.07-.02.11-.03l.01-.01c.03-.02.07-.04.1-.06h.01c.03-.02.06-.05.09-.08l.01-.01c.02-.02.02-.02.01-.01.01-.01.02-.02.03-.03.02-.02.03-.03.03-.03s.01-.01.03-.03c.01-.02.02-.03.03-.03l.02-.03c.01-.02.02-.04.03-.05l.02-.02c.01-.02.02-.04.02-.05l.02-.04.01-.04c0-.01.01-.03.01-.05.01-.02.01-.03.01-.04s.01-.02.01-.05l.01-.04c0-.01.01-.03.01-.05s.01-.04.01-.05v-.04c0-.02.01-.04.01-.05v-9.46c0-.26-.07-.48-.22-.65-.14-.18-.32-.28-.52-.28-.21 0-.38.09-.53.28-.14.18-.21.4-.21.65v6.73l-4.52-7.3c-.1-.16-.22-.26-.37-.32-.08-.03-.15-.04-.23-.04zm18.1.01c-.79 0-1.47.32-2.04.98-.57.65-.86 1.45-.9 2.4-.03.79.18 1.49.63 2.09.55.72 1.33 1.09 2.36 1.11h.01.01.01c.61.01 1.05.19 1.31.54.16.22.24.46.23.73-.02.45-.17.83-.45 1.13-.28.31-.62.46-1.01.46s-.73-.09-1.03-.26c-.34-.2-.54-.48-.62-.83-.05-.25-.16-.43-.34-.57-.18-.13-.36-.16-.56-.1s-.35.2-.45.43c-.1.22-.13.45-.08.7.18.84.59 1.48 1.24 1.92.54.37 1.15.55 1.84.55.79 0 1.47-.33 2.04-.98s.86-1.45.9-2.39c.03-.8-.18-1.5-.63-2.09-.55-.73-1.33-1.1-2.36-1.12h-.03c-.61-.01-1.05-.19-1.31-.53-.16-.22-.24-.47-.23-.74.02-.45.16-.82.45-1.13s.63-.46 1.02-.46.73.09 1.03.26c.34.2.55.48.62.83.05.25.16.43.34.57.18.13.36.16.56.1s.35-.2.45-.43c.1-.22.13-.45.08-.7-.18-.84-.59-1.48-1.24-1.93-.54-.37-1.15-.55-1.84-.55zm-115.34.03c-1.24 0-2.3.55-3.18 1.66-.88 1.1-1.31 2.43-1.31 3.98s.44 2.88 1.31 3.98c.88 1.1 1.94 1.65 3.18 1.65 1.16 0 2.17-.49 3.03-1.47.15-.17.23-.39.24-.65s-.06-.48-.2-.67-.31-.3-.52-.31-.38.07-.54.25c-.57.65-1.25.98-2.03.98-.83 0-1.53-.37-2.12-1.1-.59-.74-.88-1.62-.88-2.66s.29-1.93.88-2.67 1.29-1.1 2.12-1.1c.68 0 1.29.26 1.83.78.16.15.35.21.55.18s.37-.15.49-.35c.13-.21.18-.44.15-.7-.03-.25-.12-.46-.28-.61-.81-.78-1.72-1.17-2.74-1.17zm43.53 0-.03.01c-.02.01-.04.01-.04.01l-.03.01c-.03.01-.04.02-.04.02-.01.01-.02.01-.04.02-.03.02-.03.02-.02.02.01-.01 0 0-.02.02-.02.01-.04.02-.04.02s-.02.01-.04.03l-.03.02c0 .01-.01.02-.03.03-.02.02-.03.02-.03.02s-.01.01-.03.03c-.01.01-.02.02-.03.02 0 .01-.01.02-.03.04-.01.02-.02.03-.02.03 0 .01-.01.02-.03.03-.01.02-.02.03-.02.04s-.01.02-.03.04l-.01.04c-.01.03-.02.05-.03.08l-2.31 7v.01l-.8 2.4c-.08.24-.08.47 0 .71s.21.41.4.51c.09.05.19.07.28.07.33 0 .56-.19.69-.58l.6-1.83h3.64l.6 1.83c.13.38.35.58.69.58.1 0 .19-.02.28-.07.19-.1.32-.27.4-.51s.08-.47 0-.71l-.8-2.4v-.01l-2.32-7c-.01-.03-.02-.05-.03-.08 0-.01-.01-.02-.02-.04s-.02-.03-.02-.04-.01-.02-.03-.04l-.02-.03c0-.01-.01-.02-.03-.04-.01-.02-.02-.03-.02-.03-.01-.01-.02-.02-.03-.03-.01-.02-.02-.02-.03-.02 0-.01-.01-.02-.03-.03l-.03-.02c0-.01-.02-.02-.04-.03-.02-.02-.03-.02-.03-.02-.04-.03-.09-.05-.14-.07.01 0 0 0-.03-.01-.02-.01-.03-.02-.04-.02l-.03-.01-.04-.01h-.04-.04-.03zm26.37 0c-.21 0-.38.09-.52.28-.15.18-.22.4-.22.65v9.41c0 .26.07.48.22.65.14.18.32.28.52.28.21 0 .38-.09.52-.28.15-.18.22-.4.22-.65v-9.41c0-.26-.07-.48-.22-.65-.14-.18-.32-.28-.52-.28zm-56.83 1.8h1.86c.36 0 .68.14.94.42s.39.62.39 1.02c0 .38-.12.72-.37.99s-.55.42-.91.43h-1.91zm70.46.01c.83 0 1.55.37 2.15 1.11.59.75.89 1.64.89 2.69s-.3 1.94-.89 2.68c-.6.75-1.31 1.12-2.15 1.12-.83 0-1.55-.37-2.14-1.12-.6-.74-.89-1.64-.89-2.68 0-1.05.3-1.94.89-2.69.59-.74 1.3-1.11 2.14-1.11zm-39.93 1.54 1.21 3.66h-2.42z"></path>
<g transform="translate(270 155)">
<path clip-path="url(#a)" fill="url(#metalColor)" d="m0 0h116v26h-116z"></path>
</g>
<path fill="#ffffff" filter="url(#f2)" opacity="0.3" d="m297.56 87.52c-2.99 1.87-.89 6.82-1.52 10.02.63 3.11-1.91 9.78 2.93 9.36 2.52.62 5.67-.17 5.24-2.97 2.03-.03 4.12.26 6.17-.07-.75 4.16 3.92 2.94 6.55 3.14 2.84-2.48.81-7.53 1.42-11.14-.29-3.13 1.51-9.46-3.64-8.29-4.47-1.22-5.49 3.64-7.33 6.66-2.03-.92-2.38-7.75-6.46-6.65-1.13-.08-2.29.15-3.37-.05zm-69.09.03c-2.82 2.49-.8 7.53-1.41 11.15.18 3.22-1.35 9.29 3.73 8.14 3.62 1.12 3.86-3.41 6.03.16 2.23-.44 7.46 1.39 6.18-2.8-6.27-6.02 6.16-11.01-2.33-16.24-3.98-.81-8.14-.24-12.19-.41zm144.44.03c-2.8 2.28-.78 7.17-1.4 10.58.42 3.21-1.69 9.62 3.43 8.84 3.02.68 5.45-1.06 4.55-4.4-.14-3.02 2.56 3.01 3.65 3.92 1.7.94 3.86.22 5.79.48 3.04-.04 1.41-4.27 1.79-6.07-.24-4.27.51-8.73-.42-12.88-2.21-.85-4.97-.59-7.15 0-.21 5.7-.76 5.43-3.61.66-1.29-2.15-4.63-.55-6.64-1.14zm78.56 0c-2.85 2.49-.81 7.53-1.43 11.14.08 3.41-1.24 9.59 4.13 8.28 3.72-.29 7.7.58 11.24-.47 1.54-4.93-6.1-1.34-7.4-3.28-.28-5.04.56-10.28-.42-15.19-1.86-1.01-4.15-.12-6.13-.47zm-30.44.01c-3.49 2.99-5.24 7.99-8.03 11.79-1.23 5.4 8.72-.53 6.61 5.31-.01 3.5 4.21 1.94 6.55 2.31 2.83-2.48.81-7.53 1.42-11.14-.28-3.12 1.5-9.41-3.64-8.23-.99-.05-1.96.19-2.92-.05zm-226.75.06c-12.22.08-10.67 21.28 1.52 19.33 3.63.21 10.3.07 9.51-4.76-2.63-.91-6.26-.98-8.45.91-6.5-4.16-2.15-13.82 4.71-10.64 5.84 1.1 2.39-6.31-2.51-4.84-1.59 0-3.18.02-4.77 0zm72.63 0c-2.85 2.48-.81 7.53-1.43 11.14.18 3.22-1.35 9.32 3.74 8.17 3.32.94 5-1.78 4.23-4.92-.25-4.62.52-9.42-.42-13.91-1.86-1.01-4.15-.12-6.13-.47zm75.46 0c-2.83 2.49-.81 7.52-1.42 11.14.18 3.22-1.35 9.31 3.73 8.17 3.32.94 5.01-1.78 4.24-4.92-.25-4.62.52-9.42-.42-13.91-1.87-1.01-4.15-.12-6.13-.47zm-107.35 3.6c2.51 3.75-1.16 5.57 0 0z" transform="translate(-1.68927 0)">
<animateTransform attributeName="transform" attributeType="XML" type="translate" values="-3 0;
                                  3 0;
                                 -3 0" dur="7.2s" repeatCount="indefinite" calcMode="ease"></animateTransform>
<animate attributeName="opacity" values="0.2;0.4; 0.2" dur="3.6s" begin="0s" repeatCount="indefinite" fill="freeze" calcMode="ease"></animate>
</path>
<path fill="#ffffff" d="m231.36 87.81c-.39 0-.73.16-1.01.47-.27.31-.41.68-.41 1.13v16.14c0 .43.13.81.41 1.13.28.31.62.46 1.01.46s.73-.15 1-.46c.28-.32.42-.69.42-1.13v-6.46h2.46l3.19 7.27c.26.6.68.89 1.27.89.22 0 .42-.05.62-.16.35-.2.59-.51.71-.92.13-.42.11-.81-.06-1.2l-2.74-6.23c1.04-.41 1.87-1.09 2.51-2.05.66-.97.98-2.04.98-3.23 0-1.56-.52-2.9-1.58-4-1.05-1.1-2.31-1.65-3.8-1.65zm68.62.03c-.31.1-.57.29-.77.58-.19.28-.29.6-.29.96v16.29c0 .44.14.81.42 1.12.27.32.61.47 1 .47s.73-.16 1.01-.47.43-.68.43-1.12v-10.55l4.49 8.35c.01 0 .02 0 .02.01v.02c.01 0 .01.01.01.02l.02.02c.02.05.04.07.06.09 0 .01 0 .03.02.06.03.03.05.05.06.07.01.01.03.03.05.05.02.03.03.04.05.05.02.02.05.04.08.07.02.03.04.04.04.03.02.03.05.05.08.07l.01.02.02.01h.01c.02.02.06.04.1.06.02.02.03.02.03.02.02.01.04.03.08.05.05.02.07.02.05.01-.01 0 0 .01.05.02.1.04.21.06.32.07.05.01.06.02.05.02h.03c.2.01.39-.03.58-.12.04-.02.07-.03.08-.03-.01 0 0-.01.03-.02.04-.02.07-.04.08-.06h.02l.02-.01c.01 0 .01-.01.01-.02.03-.02.06-.03.08-.05l.04-.05c.03-.03.06-.05.08-.07.01-.01.02-.03.05-.05.02-.03.03-.04.05-.05.01-.01.03-.03.06-.07l.04-.06c.01-.02.03-.04.05-.09l.01-.02.02-.02.01-.02v-.01l4.5-8.35v10.54c0 .44.14.81.41 1.12.28.32.62.47 1.01.47s.73-.16 1.01-.47c.27-.31.41-.68.41-1.12v-16.3c0-.36-.09-.68-.29-.96-.19-.29-.44-.48-.74-.58-.31-.09-.62-.07-.92.05-.3.14-.53.35-.69.66l-5.94 11.02-5.94-11.02c-.17-.31-.4-.53-.7-.66s-.6-.14-.9-.05zm87.07 0c-.39 0-.73.16-1.01.47-.27.31-.41.68-.41 1.12v11.57l-8.68-12.55c-.19-.27-.42-.45-.71-.55-.3-.1-.58-.09-.86.02-.29.11-.53.31-.71.59-.18.27-.26.57-.26.92v16.23c0 .44.14.81.42 1.12.27.32.61.47 1.01.47.39 0 .73-.16 1-.47.28-.31.42-.68.42-1.12v-11.55l8.68 12.53v.02h.01c.02.04.06.08.09.11v.02l.01.01c.03.04.07.08.11.11.01.01.03.02.05.04.03.03.06.05.08.07.01.01.03.03.05.05.02.01.05.02.08.04.02.02.03.03.05.03.02.02.06.03.1.04.02.02.04.03.05.03.02.01.05.01.09.02.04.02.06.02.05.02.03.01.07.02.12.03.03.01.04.01.03 0 .06.01.1.01.15.01.06 0 .14 0 .21-.01l.03-.02c.07-.01.15-.03.21-.05l.02-.02c.06-.03.13-.06.2-.1h.01c.06-.04.12-.08.19-.14l.01-.02c.03-.03.04-.03.02-.01.02-.01.04-.03.06-.06.03-.03.05-.04.05-.05.01 0 .03-.02.05-.05s.03-.04.05-.05l.04-.06c.02-.04.03-.06.05-.08l.04-.05c.02-.04.02-.06.03-.08l.04-.07.02-.07c.01-.02.02-.04.03-.08.02-.04.03-.06.03-.07.01-.01.01-.04.02-.08l.02-.07c.01-.02.01-.05.01-.08.01-.04.02-.06.02-.08v-.07c.01-.04.01-.06.01-.08v-16.26c0-.44-.14-.81-.42-1.12-.27-.32-.61-.47-1-.47zm67.3 0c-.39 0-.73.16-1.01.47s-.42.68-.42 1.12v16.23c0 .44.14.81.42 1.12.27.32.61.47 1.01.47h7.81c.39 0 .73-.16 1.01-.47.27-.31.41-.68.41-1.12s-.14-.82-.41-1.13c-.28-.32-.62-.47-1.01-.47h-6.39v-14.63c0-.44-.14-.81-.42-1.12-.27-.32-.61-.47-1-.47zm-257.2.07c-2.37 0-4.41.94-6.1 2.84-1.68 1.89-2.52 4.17-2.52 6.84 0 2.66.84 4.95 2.52 6.85 1.69 1.89 3.73 2.83 6.1 2.83 2.23 0 4.17-.84 5.82-2.52.29-.3.44-.67.46-1.11s-.11-.82-.38-1.15-.59-.51-.98-.53-.74.12-1.03.42c-1.09 1.12-2.39 1.68-3.89 1.68-1.59 0-2.95-.63-4.07-1.89-1.13-1.26-1.69-2.79-1.69-4.57 0-1.79.56-3.31 1.69-4.58 1.13-1.26 2.49-1.89 4.07-1.89 1.31 0 2.48.44 3.51 1.34.31.26.67.37 1.07.32.39-.05.7-.26.94-.61s.33-.75.29-1.19c-.06-.43-.24-.79-.54-1.06-1.55-1.34-3.3-2-5.26-2zm72.63 0c-.39 0-.73.16-1.01.47s-.42.68-.42 1.12v16.17c0 .44.14.81.42 1.12.27.32.61.47 1.01.47.39 0 .73-.16 1-.47.28-.31.42-.68.42-1.12v-16.17c0-.44-.14-.81-.42-1.12-.27-.32-.61-.47-1-.47zm75.46 0c-.39 0-.73.16-1 .47-.28.31-.42.68-.42 1.12v16.17c0 .44.14.81.42 1.12.27.32.61.47 1 .47s.73-.16 1.01-.47.42-.68.42-1.12v-16.17c0-.44-.14-.81-.42-1.12-.27-.32-.61-.47-1.01-.47zm79.11.01c-.3-.1-.6-.09-.89.02-.29.12-.53.31-.71.59l-6.87 11.12c-.32.52-.35 1.07-.08 1.65.27.57.68.86 1.26.86h5.44v3.52c0 .44.14.81.42 1.12.28.32.62.47 1.01.47s.73-.16 1.01-.47c.27-.31.41-.68.41-1.12v-16.23c0-.35-.09-.67-.28-.95-.18-.28-.41-.48-.71-.59zm-191.58 3.08h3.58c.7 0 1.3.24 1.8.71.5.48.75 1.06.75 1.75 0 .66-.24 1.23-.71 1.71-.48.47-1.06.72-1.74.74h-3.68zm189.72 3.55v4.4h-2.71z"></path>
</svg>
