<?xml version="1.0" encoding="UTF-8" standalone="no"?>
<svg
   xmlns:dc="http://purl.org/dc/elements/1.1/"
   xmlns:cc="http://creativecommons.org/ns#"
   xmlns:rdf="http://www.w3.org/1999/02/22-rdf-syntax-ns#"
   xmlns:svg="http://www.w3.org/2000/svg"
   xmlns="http://www.w3.org/2000/svg"
   xmlns:xlink="http://www.w3.org/1999/xlink"
   id="svg8933"
   version="1.1"
   viewBox="0 0 320 249.99999"
   height="249.99998"
   width="320">
  <defs
     id="defs8927">
    <linearGradient
       id="linearGradient13613">
      <stop
         id="stop13609"
         offset="0"
         style="stop-color:#0e1f49;stop-opacity:1;" />
      <stop
         id="stop13611"
         offset="1"
         style="stop-color:#0e1f49;stop-opacity:0;" />
    </linearGradient>
    <linearGradient
       id="linearGradient13508">
      <stop
         id="stop13504"
         offset="0"
         style="stop-color:#ffffff;stop-opacity:1;" />
      <stop
         id="stop13506"
         offset="1"
         style="stop-color:#ffffff;stop-opacity:0;" />
    </linearGradient>
    <linearGradient
       id="linearGradient13488">
      <stop
         id="stop13484"
         offset="0"
         style="stop-color:#19294f;stop-opacity:1;" />
      <stop
         style="stop-color:#1c2f64;stop-opacity:1"
         offset="0.27779195"
         id="stop13595" />
      <stop
         style="stop-color:#1b2a50;stop-opacity:1;"
         offset="0.66922605"
         id="stop13492" />
      <stop
         id="stop13486"
         offset="1"
         style="stop-color:#131f3c;stop-opacity:1" />
    </linearGradient>
    <linearGradient
       id="linearGradient13478">
      <stop
         id="stop13474"
         offset="0"
         style="stop-color:#131f3c;stop-opacity:1" />
      <stop
         style="stop-color:#14213f;stop-opacity:1"
         offset="0.48848748"
         id="stop13482" />
      <stop
         id="stop13476"
         offset="1"
         style="stop-color:#19294f;stop-opacity:1" />
    </linearGradient>
    <linearGradient
       gradientUnits="userSpaceOnUse"
       y2="375"
       x2="210.92773"
       y1="375"
       x1="0"
       id="linearGradient13480"
       xlink:href="#linearGradient13478" />
    <linearGradient
       gradientUnits="userSpaceOnUse"
       y2="375"
       x2="320"
       y1="375"
       x1="0"
       id="linearGradient13490"
       xlink:href="#linearGradient13488" />
    <linearGradient
       gradientTransform="translate(-22.857141,9.9999914)"
       gradientUnits="userSpaceOnUse"
       y2="200.91644"
       x2="321.20712"
       y1="200.91644"
       x1="-20.133699"
       id="linearGradient13510"
       xlink:href="#linearGradient13508" />
    <linearGradient
       gradientTransform="rotate(-180,185.625,200.92087)"
       y2="200.91644"
       x2="321.20712"
       y1="200.91644"
       x1="-20.133699"
       gradientUnits="userSpaceOnUse"
       id="linearGradient13526"
       xlink:href="#linearGradient13508" />
    <linearGradient
       y2="200.91644"
       x2="321.20712"
       y1="200.91644"
       x1="-20.133699"
       gradientTransform="rotate(-180,185.625,200.92087)"
       gradientUnits="userSpaceOnUse"
       id="linearGradient13555"
       xlink:href="#linearGradient13508" />
    <linearGradient
       y2="200.91644"
       x2="321.20712"
       y1="200.91644"
       x1="-20.133699"
       gradientTransform="rotate(-180,185.625,200.92087)"
       gradientUnits="userSpaceOnUse"
       id="linearGradient13565"
       xlink:href="#linearGradient13508" />
    <linearGradient
       y2="200.91644"
       x2="321.20712"
       y1="200.91644"
       x1="-20.133699"
       gradientTransform="translate(-22.857141,9.9999914)"
       gradientUnits="userSpaceOnUse"
       id="linearGradient13567"
       xlink:href="#linearGradient13508" />
    <linearGradient
       y2="200.91644"
       x2="321.20712"
       y1="200.91644"
       x1="-20.133699"
       gradientTransform="rotate(-180,185.625,200.92087)"
       gradientUnits="userSpaceOnUse"
       id="linearGradient13575"
       xlink:href="#linearGradient13508" />
    <linearGradient
       y2="200.91644"
       x2="321.20712"
       y1="200.91644"
       x1="-20.133699"
       gradientTransform="translate(-22.857141,9.9999914)"
       gradientUnits="userSpaceOnUse"
       id="linearGradient13577"
       xlink:href="#linearGradient13508" />
    <linearGradient
       y2="200.91644"
       x2="321.20712"
       y1="200.91644"
       x1="-20.133699"
       gradientTransform="rotate(-180,185.625,200.92087)"
       gradientUnits="userSpaceOnUse"
       id="linearGradient13585"
       xlink:href="#linearGradient13508" />
    <linearGradient
       y2="200.91644"
       x2="321.20712"
       y1="200.91644"
       x1="-20.133699"
       gradientTransform="translate(-22.857141,9.9999914)"
       gradientUnits="userSpaceOnUse"
       id="linearGradient13587"
       xlink:href="#linearGradient13508" />
    <linearGradient
       gradientUnits="userSpaceOnUse"
       y2="381"
       x2="309.3563"
       y1="381"
       x1="12"
       id="linearGradient13615"
       xlink:href="#linearGradient13613" />
  </defs>
  <metadata
     id="metadata8930">
    <rdf:RDF>
      <cc:Work
         rdf:about="">
        <dc:format>image/svg+xml</dc:format>
        <dc:type
           rdf:resource="http://purl.org/dc/dcmitype/StillImage" />
        <dc:title></dc:title>
      </cc:Work>
    </rdf:RDF>
  </metadata>
  <g
     id="layer1">
    <rect
       y="0"
       x="0"
       height="750"
       width="320"
       id="rect13410"
       style="color:#000000;clip-rule:nonzero;display:inline;overflow:visible;visibility:visible;opacity:1;isolation:auto;mix-blend-mode:normal;color-interpolation:sRGB;color-interpolation-filters:linearRGB;solid-color:#000000;solid-opacity:1;vector-effect:none;fill:url(#linearGradient13490);fill-opacity:1;fill-rule:evenodd;stroke:none;stroke-width:1.00157475;stroke-linecap:round;stroke-linejoin:round;stroke-miterlimit:4;stroke-dasharray:none;stroke-dashoffset:0;stroke-opacity:1;paint-order:fill markers stroke;color-rendering:auto;image-rendering:auto;shape-rendering:auto;text-rendering:auto;enable-background:accumulate" />
    <path
       style="color:#000000;clip-rule:nonzero;display:inline;overflow:visible;visibility:visible;opacity:1;isolation:auto;mix-blend-mode:normal;color-interpolation:sRGB;color-interpolation-filters:linearRGB;solid-color:#000000;solid-opacity:1;vector-effect:none;fill:url(#linearGradient13615);fill-opacity:1;fill-rule:evenodd;stroke:none;stroke-width:2;stroke-linecap:butt;stroke-linejoin:miter;stroke-miterlimit:4;stroke-dasharray:none;stroke-dashoffset:0;stroke-opacity:0.31654681;paint-order:fill markers stroke;color-rendering:auto;image-rendering:auto;shape-rendering:auto;text-rendering:auto;enable-background:accumulate"
       d="m 12,6 v 750 h 208.91624 c 43.80207,-28.76565 88.44006,-57.35547 88.44006,-95.3418 0,-74.57182 -172.03959,-112.92818 -172.03959,-187.5 0,-74.57182 172.03959,-112.92817 172.03959,-187.5 0,-74.57183 -172.03959,-112.92816 -172.03959,-187.499997 0,-36.585486 41.41279,-64.453374 83.59953,-92.158203 z"
       id="path13605" />
    <rect
       y="268.87738"
       x="645.71429"
       height="249.99998"
       width="320"
       id="rect8879"
       style="color:#000000;clip-rule:nonzero;display:inline;overflow:visible;visibility:visible;opacity:1;isolation:auto;mix-blend-mode:normal;color-interpolation:sRGB;color-interpolation-filters:linearRGB;solid-color:#000000;solid-opacity:1;vector-effect:none;fill:#19294f;fill-opacity:1;fill-rule:evenodd;stroke:none;stroke-width:1.00157475;stroke-linecap:round;stroke-linejoin:round;stroke-miterlimit:4;stroke-dasharray:none;stroke-dashoffset:0;stroke-opacity:1;paint-order:fill markers stroke;color-rendering:auto;image-rendering:auto;shape-rendering:auto;text-rendering:auto;enable-background:accumulate" />
    <path
       id="rect8922"
       d="m 645.71429,268.87739 v 253.6738 l 320,-3.9277 V 415.57859 H 842.09515 l -21.38086,-79.7969 h -51.375 l -17.92578,-66.9043 z"
       style="color:#000000;clip-rule:nonzero;display:inline;overflow:visible;visibility:visible;opacity:1;isolation:auto;mix-blend-mode:normal;color-interpolation:sRGB;color-interpolation-filters:linearRGB;solid-color:#000000;solid-opacity:1;vector-effect:none;fill:#121e3a;fill-opacity:1;fill-rule:evenodd;stroke:none;stroke-width:1.00157475;stroke-linecap:round;stroke-linejoin:round;stroke-miterlimit:4;stroke-dasharray:none;stroke-dashoffset:0;stroke-opacity:1;paint-order:fill markers stroke;color-rendering:auto;image-rendering:auto;shape-rendering:auto;text-rendering:auto;enable-background:accumulate" />
    <path
       d="m 883.81405,420.21549 v -18.28 h 2.33884 v 16.0023 h 8.86165 v 2.2777 z m -13.33144,-2.2777 h 9.5373 v 2.2777 h -11.87616 v -18.28 h 11.55132 v 2.2777 h -9.21246 v 5.6146 h 8.19897 v 2.2197 h -8.19897 z m -7.56228,2.2777 -6.26292,-8.1244 -3.00152,3.3949 v 4.7295 h -2.33886 v -18.28 h 2.33886 v 10.2136 l 8.88761,-10.2136 h 2.6767 l -7.00357,8.226 7.44535,10.054 z m -16.81374,0 -6.26292,-8.1244 -3.00152,3.3949 v 4.7295 h -2.33886 v -18.28 h 2.33886 v 10.2136 l 8.88763,-10.2136 h 2.66369 l -6.99057,8.226 7.44533,10.054 z m -23.85627,0.2031 q -2.48178,0 -4.4698,-1.2041 -1.98802,-1.2186 -3.11846,-3.3659 -1.13044,-2.1326 -1.13044,-4.7731 v 0 q 0,-2.6404 1.13044,-4.7732 1.13044,-2.1471 3.11846,-3.3658 1.98802,-1.2042 4.4698,-1.2042 v 0 q 2.45581,0 4.44382,1.2042 1.98802,1.2187 3.10547,3.3514 1.13044,2.1181 1.13044,4.7876 v 0 q 0,2.6695 -1.13044,4.7877 -1.11745,2.1327 -3.10547,3.3513 -1.98801,1.2041 -4.44382,1.2041 z m 0,-2.3213 q 1.80612,0 3.23542,-0.9139 1.44228,-0.914 2.27387,-2.5099 0.8316,-1.6104 0.8316,-3.598 v 0 q 0,-1.9876 -0.8316,-3.5835 -0.83159,-1.6103 -2.27387,-2.5244 -1.4293,-0.914 -3.23542,-0.914 v 0 q -1.80611,0 -3.26139,0.914 -1.46828,0.9141 -2.29986,2.5244 -0.81862,1.5959 -0.81862,3.5835 v 0 q 0,1.9876 0.81862,3.598 0.83158,1.5959 2.29986,2.5099 1.45528,0.9139 3.26139,0.9139 z m -17.13857,2.3213 q -1.85808,0 -3.57325,-0.6383 -1.71515,-0.6384 -2.70267,-1.6539 v 0 l 0.87059,-2.0311 q 0.93553,0.9284 2.39081,1.5233 1.46828,0.5803 3.01452,0.5803 v 0 q 2.027,0 3.04051,-0.7689 1.00051,-0.7689 1.00051,-2.0456 v 0 q 0,-0.943 -0.54574,-1.5233 -0.55872,-0.5949 -1.36433,-0.8995 -0.8056,-0.3193 -2.27388,-0.711 v 0 q -1.8451,-0.4933 -2.98853,-0.9865 -1.13044,-0.5077 -1.93604,-1.5378 -0.80561,-1.0301 -0.80561,-2.7711 v 0 q 0,-1.4653 0.68867,-2.6404 0.68865,-1.1751 2.09196,-1.8861 1.40331,-0.6964 3.48229,-0.6964 v 0 q 1.45528,0 2.8586,0.4063 1.4033,0.4207 2.40382,1.2041 v 0 l -0.76664,2.0892 q -1.02649,-0.7254 -2.19591,-1.1027 -1.16943,-0.3771 -2.29987,-0.3771 v 0 q -1.98802,0 -2.97553,0.7979 -1.00052,0.8124 -1.00052,2.0891 v 0 q 0,0.9431 0.55873,1.5379 0.57172,0.5803 1.39032,0.9141 0.83159,0.3191 2.26089,0.6818 v 0 q 1.84509,0.5077 2.97553,1.001 1.11746,0.4933 1.92305,1.5089 0.80561,1.0155 0.80561,2.742 v 0 q 0,1.4363 -0.70166,2.626 -0.70165,1.1896 -2.11796,1.886 -1.42929,0.6818 -3.50827,0.6818 z m -16.28099,-0.2031 -6.27591,-8.1244 -2.98854,3.3949 v 4.7295 h -2.33885 v -18.28 h 2.33885 v 10.2136 l 8.88764,-10.2136 h 2.66368 l -6.99055,8.226 7.43233,10.054 z m -21.3615,0.2031 q -1.84509,0 -3.56024,-0.6383 -1.71517,-0.6384 -2.70268,-1.6539 v 0 l 0.87058,-2.0311 q 0.93554,0.9284 2.39082,1.5233 1.46828,0.5803 3.00152,0.5803 v 0 q 2.04,0 3.04051,-0.7689 1.0135,-0.7689 1.0135,-2.0456 v 0 q 0,-0.943 -0.55872,-1.5233 -0.54574,-0.5949 -1.35134,-0.8995 -0.80561,-0.3193 -2.27389,-0.711 v 0 q -1.85808,-0.4933 -2.98853,-0.9865 -1.13045,-0.5077 -1.93604,-1.5378 -0.80561,-1.0301 -0.80561,-2.7711 v 0 q 0,-1.4653 0.68867,-2.6404 0.68865,-1.1751 2.09196,-1.8861 1.40332,-0.6964 3.4823,-0.6964 v 0 q 1.45528,0 2.85859,0.4063 1.4033,0.4207 2.40382,1.2041 v 0 l -0.76663,2.0892 q -1.03948,-0.7254 -2.20891,-1.1027 -1.16943,-0.3771 -2.28687,-0.3771 v 0 q -1.98802,0 -2.98854,0.7979 -0.9875,0.8124 -0.9875,2.0891 v 0 q 0,0.9431 0.55871,1.5379 0.55873,0.5803 1.39032,0.9141 0.8316,0.3191 2.26089,0.6818 v 0 q 1.8451,0.5077 2.97555,1.001 1.11744,0.4933 1.92304,1.5089 0.80561,1.0155 0.80561,2.742 v 0 q 0,1.4363 -0.70166,2.626 -0.70165,1.1896 -2.13095,1.886 -1.4163,0.6818 -3.50828,0.6818 z m -8.27693,-0.2031 h -2.54673 l -3.53428,-5.6145 q -0.64968,0.058 -1.02649,0.058 v 0 h -4.04102 v 5.5565 h -2.33885 v -18.28 h 6.37987 q 3.18344,0 5.00254,1.6974 1.83209,1.6974 1.83209,4.6716 v 0 q 0,2.1182 -0.93553,3.6125 -0.93554,1.4798 -2.67669,2.1616 v 0 z m -7.17248,-7.7763 q 2.22191,0 3.39134,-1.0736 1.16943,-1.0735 1.16943,-3.0611 v 0 q 0,-1.9876 -1.16943,-3.0468 -1.16943,-1.0445 -3.39134,-1.0445 v 0 h -3.97604 v 8.226 z m -18.58085,7.9794 q -2.46879,0 -4.45681,-1.2041 -1.98802,-1.2186 -3.13146,-3.3659 -1.13044,-2.1326 -1.13044,-4.7731 v 0 q 0,-2.6404 1.13044,-4.7732 1.14344,-2.1471 3.13146,-3.3658 1.98802,-1.2042 4.45681,-1.2042 v 0 q 2.45579,0 4.44381,1.2042 1.98803,1.2187 3.11847,3.3514 1.11745,2.1181 1.11745,4.7876 v 0 q 0,2.6695 -1.11745,4.7877 -1.13044,2.1327 -3.11847,3.3513 -1.98802,1.2041 -4.44381,1.2041 z m 0,-2.3213 q 1.80612,0 3.2484,-0.9139 1.42929,-0.914 2.26088,-2.5099 0.8316,-1.6104 0.8316,-3.598 v 0 q 0,-1.9876 -0.8316,-3.5835 -0.83159,-1.6103 -2.26088,-2.5244 -1.44228,-0.914 -3.2484,-0.914 v 0 q -1.79311,0 -3.26139,0.914 -1.4553,0.9141 -2.28689,2.5244 -0.83159,1.5959 -0.83159,3.5835 v 0 q 0,1.9876 0.83159,3.598 0.83159,1.5959 2.28689,2.5099 1.46828,0.9139 3.26139,0.9139 z m -14.6308,-16.1618 h 2.33884 v 18.28 h -1.92305 l -9.82317,-13.6374 v 13.6374 h -2.33886 v -18.28 h 1.92307 l 9.82317,13.6375 z m -22.92074,18.28 -1.80612,-4.57 h -8.70571 l -1.79312,4.57 h -2.4168 l 7.41934,-18.28 h 2.31287 l 7.44534,18.28 z m -9.69322,-6.6591 h 7.06851 l -3.53426,-8.9514 z m 3.53425,-13.2894 q -1.07847,0 -1.8191,-0.8269 -0.75363,-0.8269 -0.75363,-2.0022 v 0 q 0,-1.1751 0.75363,-2.0166 0.74063,-0.8559 1.8191,-0.8559 v 0 q 1.10446,0 1.8451,0.8559 0.75362,0.8415 0.75362,2.0166 v 0 q 0,1.1753 -0.75362,2.0022 -0.74064,0.8269 -1.8451,0.8269 z m 0,-1.1026 q 0.67567,0 1.11745,-0.4933 0.4288,-0.4933 0.4288,-1.2332 v 0 q 0,-0.7543 -0.44179,-1.2476 -0.44178,-0.4933 -1.10446,-0.4933 v 0 q -0.64967,0 -1.09146,0.4933 -0.4288,0.4933 -0.4288,1.2476 v 0 q 0,0.7399 0.4288,1.2332 0.44179,0.4933 1.09146,0.4933 z m -15.52736,2.7711 q 3.18344,0 5.00254,1.6973 1.83209,1.6975 1.83209,4.6717 v 0 q 0,2.9741 -1.83209,4.6716 -1.8191,1.6974 -5.00254,1.6974 v 0 h -4.04102 v 5.542 h -2.33884 v -18.28 z m -0.065,10.4747 q 2.22191,0 3.39134,-1.059 1.16942,-1.0591 1.16942,-3.0467 v 0 q 0,-1.9876 -1.16942,-3.0468 -1.16943,-1.0445 -3.39134,-1.0445 v 0 h -3.97605 v 8.197 z m 262.04216,-35.4493 h 9.55032 v 2.2777 h -11.88916 v -18.2801 h 11.56432 v 2.2778 h -9.22548 v 5.6146 h 8.21197 v 2.2197 h -8.21197 z m -9.58928,-16.0024 h 2.33886 v 18.2801 h -1.91007 l -9.82316,-13.6375 v 13.6375 h -2.33885 v -18.2801 h 1.91006 l 9.82316,13.6375 z m -25.06466,16.0024 h 9.53731 v 2.2777 h -11.87618 v -18.2801 h 11.55133 v 2.2778 h -9.21246 v 5.6146 h 8.21195 v 2.2197 h -8.21195 z m -12.60381,-16.0024 q 3.17044,0 5.00254,1.6975 1.8191,1.6974 1.8191,4.6716 v 0 q 0,2.974 -1.8191,4.6715 -1.8321,1.6974 -5.00254,1.6974 v 0 h -4.05401 v 5.5421 h -2.33884 v -18.2801 z m -0.0779,10.4748 q 2.22189,0 3.39131,-1.0591 1.16943,-1.0591 1.16943,-3.0466 v 0 q 0,-1.9877 -1.16943,-3.0467 -1.16942,-1.0446 -3.39131,-1.0446 v 0 h -3.97606 v 8.197 z m -11.2005,7.8053 -1.80612,-4.5701 h -8.6927 l -1.80611,4.5701 h -2.40382 l 7.40635,-18.2801 h 2.32586 l 7.43235,18.2801 z m -9.68025,-6.6592 h 7.05554 l -3.52127,-8.9514 z m -7.1075,6.6592 -6.27591,-8.1245 -2.98853,3.3949 v 4.7296 h -2.33886 v -18.2801 h 2.33886 v 10.2137 l 8.88762,-10.2137 h 2.6637 l -6.99056,8.2261 7.43233,10.054 z m -21.36149,0.2031 q -1.84509,0 -3.56025,-0.6384 -1.72816,-0.6383 -2.70267,-1.6539 v 0 l 0.85758,-2.0311 q 0.93554,0.9285 2.40382,1.5233 1.45528,0.5804 3.00152,0.5804 v 0 q 2.04,0 3.0405,-0.769 1.0135,-0.7688 1.0135,-2.0455 v 0 q 0,-0.9431 -0.55872,-1.5234 -0.54573,-0.5948 -1.35134,-0.8995 -0.80561,-0.3191 -2.28688,-0.7109 v 0 q -1.84509,-0.4933 -2.97553,-0.9866 -1.13045,-0.5077 -1.93605,-1.5378 -0.8186,-1.03 -0.8186,-2.771 v 0 q 0,-1.4653 0.70166,-2.6405 0.68866,-1.1751 2.09197,-1.886 1.40331,-0.6964 3.48229,-0.6964 v 0 q 1.44229,0 2.8456,0.4062 1.40331,0.4207 2.4168,1.2041 v 0 l -0.77961,2.0892 q -1.0265,-0.7253 -2.19592,-1.1026 -1.16942,-0.3772 -2.28687,-0.3772 v 0 q -1.98802,0 -2.98853,0.798 -0.98752,0.8124 -0.98752,2.0891 v 0 q 0,0.943 0.55873,1.5378 0.55871,0.5803 1.39032,0.9141 0.83159,0.3191 2.26088,0.6819 v 0 q 1.8451,0.5077 2.96255,1.001 1.13044,0.4932 1.93605,1.5089 0.8056,1.0155 0.8056,2.7419 v 0 q 0,1.4364 -0.70165,2.626 -0.70167,1.1896 -2.13095,1.886 -1.42931,0.6819 -3.50828,0.6819 z m -18.5029,-0.2031 v -18.2801 h 2.33886 v 16.0024 h 8.87463 v 2.2777 z m -13.33144,-2.2777 h 9.55031 v 2.2777 h -11.88915 v -18.2801 h 11.56431 v 2.2778 h -9.22547 v 5.6146 h 8.21197 v 2.2197 h -8.21197 z m -12.08405,2.4808 q -1.8451,0 -3.57324,-0.6384 -1.71516,-0.6383 -2.70267,-1.6539 v 0 l 0.87056,-2.0311 q 0.93554,0.9285 2.40383,1.5233 1.45528,0.5804 3.00152,0.5804 v 0 q 2.027,0 3.0405,-0.769 1.00051,-0.7688 1.00051,-2.0455 v 0 q 0,-0.9431 -0.54573,-1.5234 -0.54574,-0.5948 -1.35133,-0.8995 -0.81859,-0.3191 -2.28688,-0.7109 v 0 q -1.8451,-0.4933 -2.97554,-0.9866 -1.14343,-0.5077 -1.94905,-1.5378 -0.80559,-1.03 -0.80559,-2.771 v 0 q 0,-1.4653 0.68865,-2.6405 0.68867,-1.1751 2.09197,-1.886 1.40331,-0.6964 3.48229,-0.6964 v 0 q 1.4553,0 2.8586,0.4062 1.40332,0.4207 2.40381,1.2041 v 0 l -0.76661,2.0892 q -1.0265,-0.7253 -2.19592,-1.1026 -1.16942,-0.3772 -2.29988,-0.3772 v 0 q -1.98802,0 -2.97553,0.798 -1.00051,0.8124 -1.00051,2.0891 v 0 q 0,0.943 0.57172,1.5378 0.55873,0.5803 1.39031,0.9141 0.8316,0.3191 2.2479,0.6819 v 0 q 1.85808,0.5077 2.97554,1.001 1.11744,0.4932 1.93605,1.5089 0.8056,1.0155 0.8056,2.7419 v 0 q 0,1.4364 -0.70167,2.626 -0.70164,1.1896 -2.13094,1.886 -1.4293,0.6819 -3.50827,0.6819 z m -18.1001,-2.4808 h 9.5373 v 2.2777 h -11.87616 v -18.2801 h 11.55132 v 2.2778 h -9.21246 v 5.6146 h 8.19897 v 2.2197 h -8.19897 z m -12.23998,2.4808 q -1.46827,0 -2.72866,-0.6819 -1.27337,-0.6964 -2.04,-1.944 v 0 l 1.35135,-1.7845 q 1.36432,2.1762 3.41731,2.1762 v 0 q 1.37732,0 2.09197,-0.943 0.71464,-0.9431 0.71464,-2.7711 v 0 -10.2571 h -5.91208 v -2.2778 h 8.22494 v 12.4044 q 0,3.0321 -1.28636,4.5554 -1.29936,1.5234 -3.83311,1.5234 z m -15.99513,-0.2031 v -18.2801 h 2.33885 v 16.0024 h 8.86165 v 2.2777 z m -12.25299,0.2031 q -2.48177,0 -4.46979,-1.2041 -1.98803,-1.2187 -3.11847,-3.3659 -1.14344,-2.1327 -1.14344,-4.7732 v 0 q 0,-2.6404 1.14344,-4.7731 1.13044,-2.1472 3.11847,-3.3658 1.98802,-1.2042 4.46979,-1.2042 v 0 q 2.45581,0 4.44382,1.2042 1.98803,1.2186 3.10548,3.3513 1.13045,2.1182 1.13045,4.7876 v 0 q 0,2.6695 -1.13045,4.7877 -1.11745,2.1327 -3.10548,3.3514 -1.98801,1.2041 -4.44382,1.2041 z m 0,-2.3212 q 1.79312,0 3.23541,-0.9141 1.4423,-0.914 2.27389,-2.5099 0.83159,-1.6103 0.83159,-3.598 v 0 q 0,-1.9875 -0.83159,-3.5834 -0.83159,-1.6104 -2.27389,-2.5245 -1.44229,-0.9139 -3.23541,-0.9139 v 0 q -1.80611,0 -3.26139,0.9139 -1.46828,0.9141 -2.29986,2.5245 -0.83159,1.5959 -0.83159,3.5834 v 0 q 0,1.9877 0.83159,3.598 0.83158,1.5959 2.29986,2.5099 1.45528,0.9141 3.26139,0.9141 z m -24.1681,2.1181 v -16.0023 h -5.61324 v -2.2778 h 13.55233 v 2.2778 h -5.61323 v 16.0023 z m -15.26751,0.2031 q -2.48177,0 -4.4698,-1.2041 -1.98801,-1.2187 -3.11845,-3.3659 -1.13046,-2.1327 -1.13046,-4.7732 v 0 q 0,-2.6404 1.13046,-4.7731 1.13044,-2.1472 3.11845,-3.3658 1.98803,-1.2042 4.4698,-1.2042 v 0 q 2.4558,0 4.44382,1.2042 1.98802,1.2186 3.10548,3.3513 1.13044,2.1182 1.13044,4.7876 v 0 q 0,2.6695 -1.13044,4.7877 -1.11746,2.1327 -3.10548,3.3514 -1.98802,1.2041 -4.44382,1.2041 z m 0,-2.3212 q 1.80612,0 3.23543,-0.9141 1.44228,-0.914 2.27387,-2.5099 0.83159,-1.6103 0.83159,-3.598 v 0 q 0,-1.9875 -0.83159,-3.5834 -0.83159,-1.6104 -2.27387,-2.5245 -1.42931,-0.9139 -3.23543,-0.9139 v 0 q -1.8061,0 -3.26137,0.9139 -1.46829,0.9141 -2.28689,2.5245 -0.83159,1.5959 -0.83159,3.5834 v 0 q 0,1.9877 0.83159,3.598 0.8186,1.5959 2.28689,2.5099 1.45527,0.9141 3.26137,0.9141 z m -7.95207,3.9461 14.08506,-21.9361 h 1.81911 l -14.08507,21.9361 z m -4.35287,-1.828 h -2.24789 l -0.013,-13.3184 -5.92509,11.0987 h -1.07846 l -5.9121,-11.0261 v 13.2458 h -2.2479 v -18.2801 h 1.92306 l 6.82165,12.8541 6.74368,-12.8541 h 1.91006 z"
       style="fill:#ffffff;fill-opacity:1;stroke-width:1"
       id="path228-2" />
    <path
       id="path13433"
       d="m -1103.0866,-187.88837 c 0,0 353.29466,-73.00017 389.45294,-17.41284 18.05314,27.75371 31.58651,56.84079 31.58651,81.67423 0,74.571827 -122.03427,112.928167 -122.03428,187.499997 0,74.571833 122.03428,112.928183 122.03428,187.500013 0,74.57183 -122.03428,112.92818 -122.03428,187.5 10e-6,74.57182 122.03428,112.92817 122.03428,187.49999 0,74.5718 -122.03428,112.9282 -122.03428,187.5 0,74.5718 122.03428,112.9282 122.03428,187.49998 0,74.5718 -122.03428,112.9282 -122.03428,187.5 0,74.5718 122.03428,112.9282 122.03428,187.5 0,36.5092 -29.25084,82.2123 -59.11096,119.3558 -31.13054,38.7238 -361.92849,19.6569 -361.92849,19.6569"
       style="opacity:1;vector-effect:none;fill:#121e3a;fill-opacity:1;fill-rule:evenodd;stroke:none;stroke-width:1.00157475;stroke-linecap:round;stroke-linejoin:round;stroke-miterlimit:4;stroke-dasharray:none;stroke-dashoffset:0;stroke-opacity:1;paint-order:fill markers stroke" />
    <path
       id="rect13469"
       d="M 0,0 V 750 H 148.19336 L 210.92773,654.6582 88.892578,467.1582 210.92773,279.6582 88.892578,92.158203 148.19336,0 Z"
       style="color:#000000;clip-rule:nonzero;display:inline;overflow:visible;visibility:visible;opacity:1;isolation:auto;mix-blend-mode:normal;color-interpolation:sRGB;color-interpolation-filters:linearRGB;solid-color:#000000;solid-opacity:1;vector-effect:none;fill:url(#linearGradient13480);fill-opacity:1;fill-rule:evenodd;stroke:#1b2c58;stroke-width:2;stroke-linecap:butt;stroke-linejoin:miter;stroke-miterlimit:4;stroke-dasharray:none;stroke-dashoffset:0;stroke-opacity:1;paint-order:fill markers stroke;color-rendering:auto;image-rendering:auto;shape-rendering:auto;text-rendering:auto;enable-background:accumulate" />
    <path
       id="path13500"
       style="fill:#ffffff;fill-opacity:1;stroke-width:1"
       d="m 240.95691,154.5012 v -18.28 h 2.33884 v 16.0023 h 8.86165 v 2.2777 z m -13.33144,-2.2777 h 9.5373 v 2.2777 h -11.87616 v -18.28 h 11.55132 v 2.2777 h -9.21246 v 5.6146 h 8.19897 v 2.2197 h -8.19897 z m -7.56228,2.2777 -6.26292,-8.1244 -3.00152,3.3949 v 4.7295 h -2.33886 v -18.28 h 2.33886 v 10.2136 l 8.88761,-10.2136 h 2.6767 l -7.00357,8.226 7.44535,10.054 z m -16.81374,0 -6.26292,-8.1244 -3.00152,3.3949 v 4.7295 h -2.33886 v -18.28 h 2.33886 v 10.2136 l 8.88763,-10.2136 h 2.66369 l -6.99057,8.226 7.44533,10.054 z m -23.85627,0.2031 q -2.48178,0 -4.4698,-1.2041 -1.98802,-1.2186 -3.11846,-3.3659 -1.13044,-2.1326 -1.13044,-4.7731 v 0 q 0,-2.6404 1.13044,-4.7732 1.13044,-2.1471 3.11846,-3.3658 1.98802,-1.2042 4.4698,-1.2042 v 0 q 2.45581,0 4.44382,1.2042 1.98802,1.2187 3.10547,3.3514 1.13044,2.1181 1.13044,4.7876 v 0 q 0,2.6695 -1.13044,4.7877 -1.11745,2.1327 -3.10547,3.3513 -1.98801,1.2041 -4.44382,1.2041 z m 0,-2.3213 q 1.80612,0 3.23542,-0.9139 1.44228,-0.914 2.27387,-2.5099 0.8316,-1.6104 0.8316,-3.598 v 0 q 0,-1.9876 -0.8316,-3.5835 -0.83159,-1.6103 -2.27387,-2.5244 -1.4293,-0.914 -3.23542,-0.914 v 0 q -1.80611,0 -3.26139,0.914 -1.46828,0.9141 -2.29986,2.5244 -0.81862,1.5959 -0.81862,3.5835 v 0 q 0,1.9876 0.81862,3.598 0.83158,1.5959 2.29986,2.5099 1.45528,0.9139 3.26139,0.9139 z m -17.13857,2.3213 q -1.85808,0 -3.57325,-0.6383 -1.71515,-0.6384 -2.70267,-1.6539 v 0 l 0.87059,-2.0311 q 0.93553,0.9284 2.39081,1.5233 1.46828,0.5803 3.01452,0.5803 v 0 q 2.027,0 3.04051,-0.7689 1.00051,-0.7689 1.00051,-2.0456 v 0 q 0,-0.943 -0.54574,-1.5233 -0.55872,-0.5949 -1.36433,-0.8995 -0.8056,-0.3193 -2.27388,-0.711 v 0 q -1.8451,-0.4933 -2.98853,-0.9865 -1.13044,-0.5077 -1.93604,-1.5378 -0.80561,-1.0301 -0.80561,-2.7711 v 0 q 0,-1.4653 0.68867,-2.6404 0.68865,-1.1751 2.09196,-1.8861 1.40331,-0.6964 3.48229,-0.6964 v 0 q 1.45528,0 2.8586,0.4063 1.4033,0.4207 2.40382,1.2041 v 0 l -0.76664,2.0892 q -1.02649,-0.7254 -2.19591,-1.1027 -1.16943,-0.3771 -2.29987,-0.3771 v 0 q -1.98802,0 -2.97553,0.7979 -1.00052,0.8124 -1.00052,2.0891 v 0 q 0,0.9431 0.55873,1.5379 0.57172,0.5803 1.39032,0.9141 0.83159,0.3191 2.26089,0.6818 v 0 q 1.84509,0.5077 2.97553,1.001 1.11746,0.4933 1.92305,1.5089 0.80561,1.0155 0.80561,2.742 v 0 q 0,1.4363 -0.70166,2.626 -0.70165,1.1896 -2.11796,1.886 -1.42929,0.6818 -3.50827,0.6818 z m -16.28099,-0.2031 -6.27591,-8.1244 -2.98854,3.3949 v 4.7295 h -2.33885 v -18.28 h 2.33885 v 10.2136 l 8.88764,-10.2136 h 2.66368 l -6.99055,8.226 7.43233,10.054 z m -21.3615,0.2031 q -1.84509,0 -3.56024,-0.6383 -1.71517,-0.6384 -2.70268,-1.6539 v 0 l 0.87058,-2.0311 q 0.93554,0.9284 2.39082,1.5233 1.46828,0.5803 3.00152,0.5803 v 0 q 2.04,0 3.04051,-0.7689 1.0135,-0.7689 1.0135,-2.0456 v 0 q 0,-0.943 -0.55872,-1.5233 -0.54574,-0.5949 -1.35134,-0.8995 -0.80561,-0.3193 -2.27389,-0.711 v 0 q -1.85808,-0.4933 -2.98853,-0.9865 -1.13045,-0.5077 -1.93604,-1.5378 -0.80561,-1.0301 -0.80561,-2.7711 v 0 q 0,-1.4653 0.68867,-2.6404 0.68865,-1.1751 2.09196,-1.8861 1.40332,-0.6964 3.4823,-0.6964 v 0 q 1.45528,0 2.85859,0.4063 1.4033,0.4207 2.40382,1.2041 v 0 l -0.76663,2.0892 q -1.03948,-0.7254 -2.20891,-1.1027 -1.16943,-0.3771 -2.28687,-0.3771 v 0 q -1.98802,0 -2.98854,0.7979 -0.9875,0.8124 -0.9875,2.0891 v 0 q 0,0.9431 0.55871,1.5379 0.55873,0.5803 1.39032,0.9141 0.8316,0.3191 2.26089,0.6818 v 0 q 1.8451,0.5077 2.97555,1.001 1.11744,0.4933 1.92304,1.5089 0.80561,1.0155 0.80561,2.742 v 0 q 0,1.4363 -0.70166,2.626 -0.70165,1.1896 -2.13095,1.886 -1.4163,0.6818 -3.50828,0.6818 z m -8.27693,-0.2031 h -2.54673 l -3.53428,-5.6145 q -0.64968,0.058 -1.02649,0.058 v 0 h -4.04102 v 5.5565 h -2.33885 v -18.28 h 6.37987 q 3.18344,0 5.00254,1.6974 1.83209,1.6974 1.83209,4.6716 v 0 q 0,2.1182 -0.93553,3.6125 -0.93554,1.4798 -2.67669,2.1616 v 0 z m -7.17248,-7.7763 q 2.22191,0 3.39134,-1.0736 1.16943,-1.0735 1.16943,-3.0611 v 0 q 0,-1.9876 -1.16943,-3.0468 -1.16943,-1.0445 -3.39134,-1.0445 v 0 h -3.97604 v 8.226 z m -18.580853,7.9794 q -2.46879,0 -4.45681,-1.2041 -1.98802,-1.2186 -3.13146,-3.3659 -1.13044,-2.1326 -1.13044,-4.7731 v 0 q 0,-2.6404 1.13044,-4.7732 1.14344,-2.1471 3.13146,-3.3658 1.98802,-1.2042 4.45681,-1.2042 v 0 q 2.45579,0 4.44381,1.2042 1.98803,1.2187 3.11847,3.3514 1.11745,2.1181 1.11745,4.7876 v 0 q 0,2.6695 -1.11745,4.7877 -1.13044,2.1327 -3.11847,3.3513 -1.98802,1.2041 -4.44381,1.2041 z m 0,-2.3213 q 1.80612,0 3.2484,-0.9139 1.42929,-0.914 2.26088,-2.5099 0.8316,-1.6104 0.8316,-3.598 v 0 q 0,-1.9876 -0.8316,-3.5835 -0.83159,-1.6103 -2.26088,-2.5244 -1.44228,-0.914 -3.2484,-0.914 v 0 q -1.79311,0 -3.26139,0.914 -1.4553,0.9141 -2.28689,2.5244 -0.83159,1.5959 -0.83159,3.5835 v 0 q 0,1.9876 0.83159,3.598 0.83159,1.5959 2.28689,2.5099 1.46828,0.9139 3.26139,0.9139 z m -14.6308,-16.1618 h 2.33884 v 18.28 h -1.92305 l -9.82317,-13.6374 v 13.6374 h -2.33886 v -18.28 h 1.92307 l 9.82317,13.6375 z m -22.92074,18.28 -1.80612,-4.57 h -8.70571 l -1.79312,4.57 h -2.4168 l 7.41934,-18.28 h 2.31287 l 7.44534,18.28 z m -9.69322,-6.6591 h 7.06851 l -3.53426,-8.9514 z m 3.53425,-13.2894 q -1.07847,0 -1.8191,-0.8269 -0.75363,-0.8269 -0.75363,-2.0022 v 0 q 0,-1.1751 0.75363,-2.0166 0.74063,-0.8559 1.8191,-0.8559 v 0 q 1.10446,0 1.8451,0.8559 0.75362,0.8415 0.75362,2.0166 v 0 q 0,1.1753 -0.75362,2.0022 -0.74064,0.8269 -1.8451,0.8269 z m 0,-1.1026 q 0.67567,0 1.11745,-0.4933 0.4288,-0.4933 0.4288,-1.2332 v 0 q 0,-0.7543 -0.44179,-1.2476 -0.44178,-0.4933 -1.10446,-0.4933 v 0 q -0.64967,0 -1.09146,0.4933 -0.4288,0.4933 -0.4288,1.2476 v 0 q 0,0.7399 0.4288,1.2332 0.44179,0.4933 1.09146,0.4933 z m -15.52736,2.7711 q 3.18344,0 5.00254,1.6973 1.83209,1.6975 1.83209,4.6717 v 0 q 0,2.9741 -1.83209,4.6716 -1.8191,1.6974 -5.00254,1.6974 v 0 h -4.04102 v 5.542 h -2.33884 v -18.28 z m -0.065,10.4747 q 2.22191,0 3.39134,-1.059 1.16942,-1.0591 1.16942,-3.0467 v 0 q 0,-1.9876 -1.16942,-3.0468 -1.16943,-1.0445 -3.39134,-1.0445 v 0 h -3.97605 v 8.197 z M 293.32115,111.2466 h 9.55032 v 2.2777 H 290.98231 V 95.244204 h 11.56432 v 2.2778 h -9.22548 v 5.614596 h 8.21197 v 2.2197 h -8.21197 z m -9.58928,-16.002396 h 2.33886 V 113.5243 h -1.91007 L 274.3375,99.886804 V 113.5243 h -2.33885 V 95.244204 h 1.91006 l 9.82316,13.637496 z M 258.66721,111.2466 h 9.53731 v 2.2777 H 256.32834 V 95.244204 h 11.55133 v 2.2778 h -9.21246 v 5.614596 h 8.21195 v 2.2197 h -8.21195 z M 246.0634,95.244204 q 3.17044,0 5.00254,1.6975 1.8191,1.6974 1.8191,4.671596 v 0 q 0,2.974 -1.8191,4.6715 -1.8321,1.6974 -5.00254,1.6974 v 0 h -4.05401 v 5.5421 h -2.33884 V 95.244204 Z M 245.9855,105.719 q 2.22189,0 3.39131,-1.0591 1.16943,-1.0591 1.16943,-3.0466 v 0 q 0,-1.987696 -1.16943,-3.046696 -1.16942,-1.0446 -3.39131,-1.0446 v 0 h -3.97606 V 105.719 Z m -11.2005,7.8053 -1.80612,-4.5701 h -8.6927 l -1.80611,4.5701 h -2.40382 l 7.40635,-18.280096 h 2.32586 l 7.43235,18.280096 z m -9.68025,-6.6592 h 7.05554 l -3.52127,-8.951396 z m -7.1075,6.6592 -6.27591,-8.1245 -2.98853,3.3949 v 4.7296 h -2.33886 V 95.244204 h 2.33886 V 105.4579 l 8.88762,-10.213696 h 2.6637 l -6.99056,8.226096 7.43233,10.054 z m -21.36149,0.2031 q -1.84509,0 -3.56025,-0.6384 -1.72816,-0.6383 -2.70267,-1.6539 v 0 l 0.85758,-2.0311 q 0.93554,0.9285 2.40382,1.5233 1.45528,0.5804 3.00152,0.5804 v 0 q 2.04,0 3.0405,-0.769 1.0135,-0.7688 1.0135,-2.0455 v 0 q 0,-0.9431 -0.55872,-1.5234 -0.54573,-0.5948 -1.35134,-0.8995 -0.80561,-0.3191 -2.28688,-0.7109 v 0 q -1.84509,-0.4933 -2.97553,-0.9866 -1.13045,-0.5077 -1.93605,-1.5378 -0.8186,-1.03 -0.8186,-2.771 v 0 q 0,-1.465296 0.70166,-2.640496 0.68866,-1.1751 2.09197,-1.886 1.40331,-0.6964 3.48229,-0.6964 v 0 q 1.44229,0 2.8456,0.4062 1.40331,0.4207 2.4168,1.2041 v 0 l -0.77961,2.0892 q -1.0265,-0.7253 -2.19592,-1.1026 -1.16942,-0.3772 -2.28687,-0.3772 v 0 q -1.98802,0 -2.98853,0.798 -0.98752,0.8124 -0.98752,2.089096 v 0 q 0,0.943 0.55873,1.5378 0.55871,0.5803 1.39032,0.9141 0.83159,0.3191 2.26088,0.6819 v 0 q 1.8451,0.5077 2.96255,1.001 1.13044,0.4932 1.93605,1.5089 0.8056,1.0155 0.8056,2.7419 v 0 q 0,1.4364 -0.70165,2.626 -0.70167,1.1896 -2.13095,1.886 -1.42931,0.6819 -3.50828,0.6819 z m -18.5029,-0.2031 V 95.244204 h 2.33886 V 111.2466 h 8.87463 v 2.2777 z m -13.33144,-2.2777 h 9.55031 v 2.2777 H 162.46258 V 95.244204 h 11.56431 v 2.2778 h -9.22547 v 5.614596 h 8.21197 v 2.2197 h -8.21197 z m -12.08405,2.4808 q -1.8451,0 -3.57324,-0.6384 -1.71516,-0.6383 -2.70267,-1.6539 v 0 l 0.87056,-2.0311 q 0.93554,0.9285 2.40383,1.5233 1.45528,0.5804 3.00152,0.5804 v 0 q 2.027,0 3.0405,-0.769 1.00051,-0.7688 1.00051,-2.0455 v 0 q 0,-0.9431 -0.54573,-1.5234 -0.54574,-0.5948 -1.35133,-0.8995 -0.81859,-0.3191 -2.28688,-0.7109 v 0 q -1.8451,-0.4933 -2.97554,-0.9866 -1.14343,-0.5077 -1.94905,-1.5378 -0.80559,-1.03 -0.80559,-2.771 v 0 q 0,-1.465296 0.68865,-2.640496 0.68867,-1.1751 2.09197,-1.886 1.40331,-0.6964 3.48229,-0.6964 v 0 q 1.4553,0 2.8586,0.4062 1.40332,0.4207 2.40381,1.2041 v 0 l -0.76661,2.0892 q -1.0265,-0.7253 -2.19592,-1.1026 -1.16942,-0.3772 -2.29988,-0.3772 v 0 q -1.98802,0 -2.97553,0.798 -1.00051,0.8124 -1.00051,2.089096 v 0 q 0,0.943 0.57172,1.5378 0.55873,0.5803 1.39031,0.9141 0.8316,0.3191 2.2479,0.6819 v 0 q 1.85808,0.5077 2.97554,1.001 1.11744,0.4932 1.93605,1.5089 0.8056,1.0155 0.8056,2.7419 v 0 q 0,1.4364 -0.70167,2.626 -0.70164,1.1896 -2.13094,1.886 -1.4293,0.6819 -3.50827,0.6819 z m -18.1001,-2.4808 h 9.5373 v 2.2777 H 132.27841 V 95.244204 h 11.55132 v 2.2778 h -9.21246 v 5.614596 h 8.19897 v 2.2197 h -8.19897 z m -12.23998,2.4808 q -1.46827,0 -2.72866,-0.6819 -1.27337,-0.6964 -2.04,-1.944 v 0 l 1.35135,-1.7845 q 1.36432,2.1762 3.41731,2.1762 v 0 q 1.37732,0 2.09197,-0.943 0.71464,-0.9431 0.71464,-2.7711 v 0 -10.257096 h -5.91208 v -2.2778 h 8.22494 V 107.6486 q 0,3.0321 -1.28636,4.5554 -1.29936,1.5234 -3.83311,1.5234 z m -15.99513,-0.2031 V 95.244204 h 2.33885 V 111.2466 h 8.86165 v 2.2777 z m -12.252993,0.2031 q -2.48177,0 -4.46979,-1.2041 -1.98803,-1.2187 -3.11847,-3.3659 -1.14344,-2.1327 -1.14344,-4.7732 v 0 q 0,-2.6404 1.14344,-4.773096 1.13044,-2.1472 3.11847,-3.3658 1.98802,-1.2042 4.46979,-1.2042 v 0 q 2.45581,0 4.44382,1.2042 1.988033,1.2186 3.105483,3.3513 1.13045,2.118196 1.13045,4.787596 v 0 q 0,2.6695 -1.13045,4.7877 -1.11745,2.1327 -3.105483,3.3514 -1.98801,1.2041 -4.44382,1.2041 z m 0,-2.3212 q 1.79312,0 3.23541,-0.9141 1.4423,-0.914 2.27389,-2.5099 0.831593,-1.6103 0.831593,-3.598 v 0 q 0,-1.9875 -0.831593,-3.5834 -0.83159,-1.610396 -2.27389,-2.524496 -1.44229,-0.9139 -3.23541,-0.9139 v 0 q -1.80611,0 -3.26139,0.9139 -1.46828,0.9141 -2.29986,2.524496 -0.83159,1.5959 -0.83159,3.5834 v 0 q 0,1.9877 0.83159,3.598 0.83158,1.5959 2.29986,2.5099 1.45528,0.9141 3.26139,0.9141 z m -24.1681,2.1181 V 97.522004 h -5.61324 v -2.2778 h 13.55233 v 2.2778 h -5.61323 V 113.5243 Z m -15.26751,0.2031 q -2.48177,0 -4.4698,-1.2041 -1.98801,-1.2187 -3.11845,-3.3659 -1.13046,-2.1327 -1.13046,-4.7732 v 0 q 0,-2.6404 1.13046,-4.773096 1.13044,-2.1472 3.11845,-3.3658 1.98803,-1.2042 4.4698,-1.2042 v 0 q 2.4558,0 4.44382,1.2042 1.98802,1.2186 3.10548,3.3513 1.13044,2.118196 1.13044,4.787596 v 0 q 0,2.6695 -1.13044,4.7877 -1.11746,2.1327 -3.10548,3.3514 -1.98802,1.2041 -4.44382,1.2041 z m 0,-2.3212 q 1.80612,0 3.23543,-0.9141 1.44228,-0.914 2.27387,-2.5099 0.83159,-1.6103 0.83159,-3.598 v 0 q 0,-1.9875 -0.83159,-3.5834 -0.83159,-1.610396 -2.27387,-2.524496 -1.42931,-0.9139 -3.23543,-0.9139 v 0 q -1.8061,0 -3.26137,0.9139 -1.46829,0.9141 -2.28689,2.524496 -0.83159,1.5959 -0.83159,3.5834 v 0 q 0,1.9877 0.83159,3.598 0.8186,1.5959 2.28689,2.5099 1.45527,0.9141 3.26137,0.9141 z m -7.95207,3.9461 14.08506,-21.936096 h 1.81911 L 48.560587,115.3523 Z m -4.35287,-1.828 h -2.24789 l -0.013,-13.3184 -5.92509,11.0987 h -1.07846 l -5.9121,-11.0261 v 13.2458 h -2.2479 V 95.244204 h 1.92306 l 6.82165,12.854096 6.74368,-12.854096 h 1.91006 z" />
    <g
       transform="translate(-117.19022,6.8208105)"
       id="g13629">
      <path
         d="M 200.16276,48.747871 145.29941,63.448463 105.13664,23.2857 l 14.7006,-54.863356 54.86335,-14.700592 40.16277,40.1627638 z"
         id="path13623"
         style="color:#000000;clip-rule:nonzero;display:inline;overflow:visible;visibility:visible;opacity:1;isolation:auto;mix-blend-mode:normal;color-interpolation:sRGB;color-interpolation-filters:linearRGB;solid-color:#000000;solid-opacity:1;vector-effect:none;fill:#1b2c57;fill-opacity:1;fill-rule:evenodd;stroke:#1b2c58;stroke-width:2;stroke-linecap:butt;stroke-linejoin:miter;stroke-miterlimit:4;stroke-dasharray:none;stroke-dashoffset:0;stroke-opacity:1;paint-order:fill markers stroke;color-rendering:auto;image-rendering:auto;shape-rendering:auto;text-rendering:auto;enable-background:accumulate" />
      <path
         style="color:#000000;clip-rule:nonzero;display:inline;overflow:visible;visibility:visible;opacity:1;isolation:auto;mix-blend-mode:normal;color-interpolation:sRGB;color-interpolation-filters:linearRGB;solid-color:#000000;solid-opacity:1;vector-effect:none;fill:#1b2c57;fill-opacity:1;fill-rule:evenodd;stroke:#1b2c58;stroke-width:2;stroke-linecap:butt;stroke-linejoin:miter;stroke-miterlimit:4;stroke-dasharray:none;stroke-dashoffset:0;stroke-opacity:1;paint-order:fill markers stroke;color-rendering:auto;image-rendering:auto;shape-rendering:auto;text-rendering:auto;enable-background:accumulate"
         id="path13631"
         d="m 200.16276,298.74788 -54.86335,14.70059 -40.16277,-40.16276 14.7006,-54.86336 54.86335,-14.70059 40.16277,40.16276 z" />
      <path
         d="m 200.16276,548.74788 -54.86335,14.70059 -40.16277,-40.16276 14.7006,-54.86336 54.86335,-14.70059 40.16277,40.16276 z"
         id="path13633"
         style="color:#000000;clip-rule:nonzero;display:inline;overflow:visible;visibility:visible;opacity:1;isolation:auto;mix-blend-mode:normal;color-interpolation:sRGB;color-interpolation-filters:linearRGB;solid-color:#000000;solid-opacity:1;vector-effect:none;fill:#1b2c57;fill-opacity:1;fill-rule:evenodd;stroke:#1b2c58;stroke-width:2;stroke-linecap:butt;stroke-linejoin:miter;stroke-miterlimit:4;stroke-dasharray:none;stroke-dashoffset:0;stroke-opacity:1;paint-order:fill markers stroke;color-rendering:auto;image-rendering:auto;shape-rendering:auto;text-rendering:auto;enable-background:accumulate" />
      <path
         style="color:#000000;clip-rule:nonzero;display:inline;overflow:visible;visibility:visible;opacity:1;isolation:auto;mix-blend-mode:normal;color-interpolation:sRGB;color-interpolation-filters:linearRGB;solid-color:#000000;solid-opacity:1;vector-effect:none;fill:#1b2c57;fill-opacity:1;fill-rule:evenodd;stroke:#1b2c58;stroke-width:2;stroke-linecap:butt;stroke-linejoin:miter;stroke-miterlimit:4;stroke-dasharray:none;stroke-dashoffset:0;stroke-opacity:1;paint-order:fill markers stroke;color-rendering:auto;image-rendering:auto;shape-rendering:auto;text-rendering:auto;enable-background:accumulate"
         id="path13635"
         d="m 200.16276,798.74785 -54.86335,14.70059 -40.16277,-40.16277 14.7006,-54.86335 54.86335,-14.70059 40.16277,40.16276 z" />
    </g>
    <g
       transform="translate(-14.196429,44)"
       id="g13553">
      <path
         style="fill:url(#linearGradient13555);fill-opacity:1;fill-rule:evenodd;stroke:none;stroke-width:1px;stroke-linecap:butt;stroke-linejoin:miter;stroke-opacity:1"
         d="M 230.53571,218.778 213.39286,201.63514 H 69.82143 L 51.25,182.55602 h 295 L 390,218.778 Z"
         id="path13502" />
      <path
         id="path13522"
         d="M 117.85715,193.06371 135,210.20657 h 143.57143 l 18.57143,19.07913 H 2.1428585 L -41.607141,193.06371 Z"
         style="fill:url(#linearGradient13510);fill-opacity:1;fill-rule:evenodd;stroke:none;stroke-width:1px;stroke-linecap:butt;stroke-linejoin:miter;stroke-opacity:1" />
    </g>
    <g
       id="g13563"
       transform="translate(-14.196429,294)">
      <path
         id="path13559"
         d="M 230.53571,218.778 213.39286,201.63514 H 69.82143 L 51.25,182.55602 h 295 L 390,218.778 Z"
         style="fill:url(#linearGradient13565);fill-opacity:1;fill-rule:evenodd;stroke:none;stroke-width:1px;stroke-linecap:butt;stroke-linejoin:miter;stroke-opacity:1" />
      <path
         style="fill:url(#linearGradient13567);fill-opacity:1;fill-rule:evenodd;stroke:none;stroke-width:1px;stroke-linecap:butt;stroke-linejoin:miter;stroke-opacity:1"
         d="M 117.85715,193.06371 135,210.20657 h 143.57143 l 18.57143,19.07913 H 2.1428585 L -41.607141,193.06371 Z"
         id="path13561" />
    </g>
    <g
       transform="translate(-14.196429,544)"
       id="g13573">
      <path
         style="fill:url(#linearGradient13575);fill-opacity:1;fill-rule:evenodd;stroke:none;stroke-width:1px;stroke-linecap:butt;stroke-linejoin:miter;stroke-opacity:1"
         d="M 230.53571,218.778 213.39286,201.63514 H 69.82143 L 51.25,182.55602 h 295 L 390,218.778 Z"
         id="path13569" />
      <path
         id="path13571"
         d="M 117.85715,193.06371 135,210.20657 h 143.57143 l 18.57143,19.07913 H 2.1428585 L -41.607141,193.06371 Z"
         style="fill:url(#linearGradient13577);fill-opacity:1;fill-rule:evenodd;stroke:none;stroke-width:1px;stroke-linecap:butt;stroke-linejoin:miter;stroke-opacity:1" />
    </g>
    <g
       id="g13583"
       transform="translate(-14.196429,-206)">
      <path
         id="path13579"
         d="M 230.53571,218.778 213.39286,201.63514 H 69.82143 L 51.25,182.55602 h 295 L 390,218.778 Z"
         style="fill:url(#linearGradient13585);fill-opacity:1;fill-rule:evenodd;stroke:none;stroke-width:1px;stroke-linecap:butt;stroke-linejoin:miter;stroke-opacity:1" />
      <path
         style="fill:url(#linearGradient13587);fill-opacity:1;fill-rule:evenodd;stroke:none;stroke-width:1px;stroke-linecap:butt;stroke-linejoin:miter;stroke-opacity:1"
         d="M 117.85715,193.06371 135,210.20657 h 143.57143 l 18.57143,19.07913 H 2.1428585 L -41.607141,193.06371 Z"
         id="path13581" />
    </g>
  </g>
</svg>
